<?xml version="1.0" encoding="UTF-8"?>
<svg width="1200pt" height="1200pt" version="1.1" viewBox="0 0 1200 1200" xmlns="http://www.w3.org/2000/svg">
 <g fill="#fff">
  <path d="m203.58 774.5c0.058594 43.676 17.434 85.543 48.316 116.43 30.883 30.883 72.754 48.258 116.43 48.316h463.34c43.676-0.058593 85.543-17.434 116.43-48.316 30.883-30.883 48.258-72.75 48.316-116.43v-258.85h-792.82z"/>
  <path d="m64.582 536.24c-2.2695 26.039 7.5586 51.68 26.652 69.527s45.336 25.926 71.164 21.902v-112.02l-77.223 0.003907c-5.457 0.015624-10.688 2.1875-14.543 6.0469-3.8594 3.8594-6.0352 9.0859-6.0508 14.543z"/>
  <path d="m1114.8 515.65h-77.223v112.02h15.445c21.848 0.003906 42.805-8.6719 58.254-24.121 15.449-15.449 24.125-36.402 24.117-58.25 1.6719-14.504-3.9805-29.316-20.594-29.652z"/>
  <path d="m437.5 348.26c-4.3906 5.793-5.4062 13.465-2.6719 20.195 2.7305 6.7305 8.8008 11.527 15.984 12.625 7.1797 1.0977 14.41-1.668 19.023-7.2812 17.586-22.176 26.703-49.887 25.723-78.176-0.98047-28.285-11.996-55.301-31.07-76.207-13.723-15.031-21.016-34.836-20.324-55.176 0.69141-20.34 9.3164-39.602 24.023-53.668 5.1211-5.1484 7.1562-12.609 5.3555-19.641-1.7969-7.0352-7.168-12.602-14.133-14.652-6.9648-2.0508-14.496-0.28516-19.82 4.6484-22.465 21.508-35.613 50.953-36.637 82.035-1.0195 31.082 10.164 61.328 31.168 84.266 12.461 13.699 19.645 31.387 20.262 49.895 0.62109 18.512-5.3633 36.637-16.883 51.137z"/>
  <path d="m588.19 348.26c-4.3867 5.793-5.4023 13.465-2.6719 20.195s8.8047 11.527 15.984 12.625c7.1836 1.0977 14.41-1.668 19.023-7.2812 17.586-22.176 26.703-49.887 25.723-78.176-0.98047-28.285-11.992-55.301-31.07-76.207-13.719-15.031-21.012-34.836-20.32-55.176 0.69141-20.34 9.3125-39.602 24.02-53.668 5.125-5.1445 7.1602-12.609 5.3594-19.645-1.8008-7.0312-7.168-12.602-14.137-14.652-6.9648-2.0508-14.496-0.28125-19.82 4.6523-22.461 21.508-35.613 50.953-36.637 82.035-1.0195 31.082 10.168 61.328 31.168 84.266 12.461 13.699 19.645 31.387 20.266 49.895 0.61719 18.512-5.3672 36.637-16.887 51.137z"/>
  <path d="m738.85 348.26c-4.3867 5.793-5.4023 13.465-2.6719 20.195 2.7305 6.7305 8.8047 11.527 15.984 12.625 7.1836 1.0977 14.41-1.668 19.027-7.2812 17.586-22.176 26.707-49.887 25.73-78.172s-11.988-55.301-31.062-76.211c-13.719-15.031-21.012-34.836-20.32-55.176 0.69141-20.34 9.3125-39.602 24.02-53.668 5.125-5.1445 7.1641-12.609 5.3633-19.645-1.8008-7.0352-7.1719-12.602-14.137-14.652-6.9648-2.0508-14.496-0.28516-19.824 4.6523-22.461 21.508-35.613 50.953-36.633 82.035-1.0234 31.082 10.164 61.328 31.164 84.266 12.461 13.703 19.641 31.391 20.254 49.898 0.61719 18.512-5.3711 36.637-16.895 51.133z"/>
  <path d="m939.03 1083.8h-71.332v-56.008c0-7.3555-3.9219-14.156-10.293-17.836-6.3711-3.6758-14.223-3.6758-20.594 0-6.3711 3.6797-10.297 10.48-10.297 17.836v56.008h-205.93v-61.781c-0.14063-7.2617-4.0977-13.914-10.41-17.504-6.3164-3.5898-14.055-3.5898-20.367 0-6.3125 3.5938-10.27 10.246-10.41 17.508v61.777h-205.93v-61.781c0-7.3555-3.9258-14.152-10.297-17.832-6.3711-3.6797-14.223-3.6797-20.594 0-6.3711 3.6797-10.293 10.477-10.293 17.832v61.777l-71.332 0.003906c-7.2852 0.10938-13.965 4.0586-17.578 10.383-3.6094 6.3281-3.6094 14.09 0 20.414 3.6133 6.3281 10.293 10.277 17.578 10.387h678.07c7.2578-0.14844 13.902-4.1055 17.488-10.414 3.5898-6.3125 3.5898-14.047 0-20.355-3.5859-6.3125-10.23-10.27-17.488-10.414z"/>
 </g>
</svg>
