<?xml version="1.0" encoding="UTF-8"?>
<svg width="1200pt" height="1200pt" version="1.1" viewBox="0 0 1200 1200" xmlns="http://www.w3.org/2000/svg">
 <g fill="#fff">
  <path d="m990 588h-202.8c0.80078-5.1914-0.12891-10.504-2.6406-15.121-1.9961-3.6289-4.9297-6.6602-8.5-8.7695-3.5664-2.1133-7.6328-3.2266-11.777-3.2305h-506.28c-4.1445 0.003906-8.2148 1.1172-11.781 3.2305-3.5664 2.1094-6.5 5.1406-8.5 8.7695-4.2852 7.4258-4.2852 16.574 0 24l21.961 36.84c4.8398 7.9219 7.4492 17 7.5586 26.281v6.2383c0 22.156 8.7539 43.414 24.352 59.145 15.598 15.734 36.777 24.668 58.93 24.855h321.48c21.582-0.23047 42.246-8.7617 57.707-23.82 15.461-15.059 24.531-35.488 25.332-57.059h234.96c13.945-0.75781 26.52-8.6406 33.281-20.859 6.7656-12.219 6.7656-27.059 0-39.281-6.7617-12.219-19.336-20.098-33.281-20.859zm-250.8 32.039c-1.6797 2.8789-3.1211 5.7617-4.4414 8.6406l-2.0391 5.3984-1.0781 3.3594v0.003906c-0.72656 2.4062-1.3281 4.8477-1.8008 7.3203v1.5586c0 2.6406-0.83984 5.3984-1.0781 8.1602v0.60156l-1.0781 14.398h-0.003906c-0.64063 14.395-6.7695 27.996-17.125 38.016-10.352 10.016-24.148 15.695-38.555 15.863h-321.48c-13.219-0.035156-25.992-4.8008-36-13.438h149.4c6.9609-0.66016 12.285-6.5078 12.285-13.5 0-6.9961-5.3242-12.844-12.285-13.5h-167.04c-1.3516-4.3672-2.1562-8.8789-2.3984-13.441h119.28c3.8008 0.35938 7.5742-0.90234 10.398-3.4727 2.8242-2.5703 4.4336-6.2109 4.4336-10.027 0-3.8203-1.6094-7.4609-4.4336-10.027-2.8242-2.5703-6.5977-3.832-10.398-3.4727h-121.8c-1.7812-7.8945-4.7773-15.465-8.8828-22.441l-19.078-32.039h494.04zm250.8 22.441h-231.6c0.99609-2.75 2.2422-5.3984 3.7227-7.9219l10.922-18.48h216.96c6.9648 0.66016 12.285 6.5078 12.285 13.5 0 6.9961-5.3203 12.844-12.285 13.5z"/>
  <path d="m747.24 898.8h-66.238c24-18 36.84-30.961 38.879-46.922 2.0391-15.961-8.5195-31.199-26.398-54.359l-11.398-14.762-8.1602-10.801-10.68 8.1602c-24.602 18.602-38.398 31.68-40.559 48-2.1602 16.32 8.5195 31.32 26.52 54.48l11.398 14.762 0.96094 1.4414h-138.96c24-18 36.719-30.961 38.879-46.922 2.1602-15.961-8.5195-31.199-26.52-54.359l-11.398-14.762-8.0391-10.801-10.801 8.1602c-24.602 18.602-38.281 31.68-40.441 48-2.1602 16.32 8.5195 31.32 26.398 54.359l12 14.879 1.0781 1.4414-143.04 0.003906c24-18 36.719-30.961 38.879-46.922 2.1602-15.961-8.5195-31.199-26.52-54.359l-11.398-14.762-8.0391-10.801-10.801 8.1602c-24.602 18.602-38.281 31.68-40.441 48-2.1602 16.32 8.5195 31.32 26.398 54.359l12 14.879 1.0781 1.4414-53.273 0.003906c-3.8008-0.35938-7.5781 0.90234-10.402 3.4688-2.8242 2.5703-4.4336 6.2109-4.4336 10.031 0 3.8164 1.6094 7.457 4.4336 10.027s6.6016 3.832 10.402 3.4727h458.64c6.9648-0.65625 12.289-6.5039 12.289-13.5 0-6.9961-5.3242-12.844-12.289-13.5zm-397.08-32.762c-12.719-16.32-21.84-28.199-21.121-34.32s9.4805-13.801 19.441-21.84l3.3594 4.1992c12.602 16.32 21.84 28.199 21 34.32-0.83984 6.1211-9.4805 13.801-19.441 21.84zm161.76 0c-12-16.32-21.84-28.199-21-34.32s9.4805-13.801 19.441-21.84l3.3594 4.1992c12 16.32 21.84 28.199 21 34.32-0.83984 6.1211-9.4805 13.801-19.441 21.84zm158.52 0c-12.719-16.32-21.84-28.199-21-34.32s9.4805-13.801 19.441-21.84l3.2383 4.1992c12.719 16.32 21.84 28.199 21.121 34.32-0.71875 6.1211-9.4805 13.801-19.441 21.84z"/>
  <path d="m359.28 444c-0.078125 25.055 9.9102 49.094 27.719 66.719 2.5039 2.5352 5.918 3.9648 9.4805 3.9648s6.9766-1.4297 9.4805-3.9648c2.5352-2.5 3.9609-5.9141 3.9609-9.4805 0-3.5625-1.4258-6.9766-3.9609-9.4766-12.781-12.707-19.969-29.98-19.969-48 0-18.023 7.1875-35.297 19.969-48 17.738-17.695 27.711-41.723 27.711-66.781 0-25.059-9.9727-49.086-27.711-66.781-2.5039-2.5352-5.918-3.9609-9.4805-3.9609s-6.9766 1.4258-9.4805 3.9609c-2.543 2.5234-3.9727 5.957-3.9727 9.5391 0 3.5859 1.4297 7.0195 3.9727 9.543 12.781 12.703 19.965 29.98 19.965 48s-7.1836 35.293-19.965 48c-17.809 17.625-27.797 41.664-27.719 66.719z"/>
  <path d="m524.4 444c0.054687 24.832 9.9844 48.621 27.602 66.121 2.4883 2.5547 5.9141 3.9883 9.4805 3.957 5.4414 0.03125 10.367-3.2266 12.469-8.2461 2.1016-5.0195 0.96875-10.812-2.8711-14.672-12.867-12.656-20.117-29.949-20.117-48 0-18.051 7.25-35.344 20.117-48 17.684-17.727 27.613-41.742 27.613-66.781 0-25.035-9.9297-49.051-27.613-66.777-5.4336-5.2695-14.109-5.1367-19.379 0.29688-5.2695 5.4375-5.1328 14.113 0.30078 19.383 12.781 12.703 19.965 29.98 19.965 48s-7.1836 35.293-19.965 48c-17.766 17.645-27.707 41.68-27.602 66.719z"/>
 </g>
</svg>
