<?xml version="1.0" encoding="UTF-8"?>
<svg width="1200pt" height="1200pt" version="1.1" viewBox="0 0 1200 1200" xmlns="http://www.w3.org/2000/svg">
 <g fill="#fff">
  <path d="m1078.4 800.17-98.121 43.84-840.85-154.93-76.055-75.945c-8.5469-8.5195-22.387-8.5195-30.895 0.039063-8.5352 8.5195-8.5195 22.359 0.027343 30.906l90.215 90.078c69.172 112.12 216.72 205.89 398.99 239.49 182.28 33.574 353.56-1.4648 458.15-81.574l116.4-52c11.012-4.9219 15.961-17.852 11.012-28.867-4.9336-11.02-17.855-15.969-28.867-11.035z"/>
  <path d="m799.38 755.44c18.172-18.188 84.508-116.33 84.508-140.85 0-24.547-17.266-53.625 0.90625-71.812 13.602-13.602 6.6914-19.906 12.508-32.375-3.6133-2.1055-7.375-5.0664-11.199-8.8945-3.8281-3.8281-6.8008-7.6016-8.9062-11.199-12.453 5.8125-18.773-1.1211-32.398 12.48-18.148 18.172-47.238 0.90625-71.773 0.90625-24.559 0-122.68 66.359-140.85 84.535-18.199 18.16-13.281 27.828 63.055 104.15 76.336 76.355 85.949 81.234 104.15 63.062zm24.691-120.13c4.7617 4.2266 5.2148 11.559 0.93359 16.332l-54.238 60.895c-4.2383 4.7852-11.559 5.2148-16.332 0.94531-0.1875-0.16016-0.33203-0.30859-0.49219-0.46484-4.3203-4.293-4.5586-11.266-0.46484-15.852l54.266-60.895c4.2344-4.7891 11.555-5.2031 16.328-0.96094zm-35.895-35.91c4.5352 4.5195 4.5352 11.852 0 16.359l-57.574 57.586c-4.5078 4.5352-11.828 4.5352-16.359 0-4.5078-4.5195-4.5078-11.84 0-16.359l57.574-57.602c4.5469-4.5039 11.855-4.5039 16.359 0.015626zm-113.61 34.27c-0.16016-0.16016-0.30859-0.32031-0.44141-0.49219-4.2656-4.7617-3.8516-12.078 0.93359-16.332l60.879-54.266c4.7852-4.2539 12.055-3.8516 16.359 0.93359 4.2383 4.7617 3.8008 12.078-0.96094 16.332l-60.879 54.281c-4.6094 4.1016-11.598 3.8359-15.891-0.45703z"/>
  <path d="m1167.4 220.16c-8.6133-8.6406-22.652-8.6406-31.281 0l-254.69 254.67c-8.6406 8.6523 22.652 39.961 31.309 31.309l254.67-254.68c8.6367-8.6445 8.6367-22.645-0.003907-31.297zm-9.3594 25.707-21.254 21.238c-4.5078 4.5078-11.852 4.5078-16.359 0-4.5078-4.5195-4.5078-11.84 0-16.359l21.254-21.238c4.5078-4.5195 11.828-4.5195 16.359 0 4.5078 4.5312 4.5078 11.852 0 16.359z"/>
  <path d="m487.68 667.79c31.066 2.9453 63.922-22.16 77.199-61.254 13.309-39.105 2.5586-79.027-23.867-95.641 10.773 24.719 12.148 56.574 1.4414 88.012-10.68 31.43-31.16 55.859-54.773 68.883z"/>
  <path d="m293.81 662.32c39.105 13.281 79.012 2.5352 95.641-23.879-24.734 10.785-56.574 12.133-88.012 1.4531-31.441-10.691-55.852-31.188-68.906-54.801-2.9219 31.094 22.172 63.934 61.277 77.227z"/>
  <path d="m437.77 589.44c-13.508-30.922-15.188-70.746-1.8281-110.08 13.359-39.309 38.988-69.852 68.535-86.16-38.879-3.668-79.945 27.734-96.574 76.641-16.641 48.902-3.1992 98.836 29.867 119.6z"/>
 </g>
</svg>
